<svg width="103" height="103" viewBox="0 0 103 103" fill="none" xmlns="http://www.w3.org/2000/svg">
<circle cx="51.5" cy="51.5" r="51.5" fill="#D97B29"/>
<g clip-path="url(#clip0_478_4)">
<path d="M50 30.625C36.4801 30.625 24.7582 38.499 19 50C24.7582 61.501 36.4801 69.375 50 69.375C63.5199 69.375 75.2417 61.501 81 50C75.2417 38.499 63.5199 30.625 50 30.625ZM65.2869 40.9015C68.9294 43.2265 72.0177 46.3381 74.335 50C72.025 53.6615 68.9355 56.7682 65.2869 59.0985C60.7223 62.015 55.4187 63.5647 50.0019 63.5647C44.5852 63.5647 39.2815 62.015 34.717 59.0985C31.0701 56.7661 27.981 53.6598 25.6689 50C28.131 46.0984 31.476 42.8304 35.4339 40.4598C34.5821 42.8012 34.3073 45.3135 34.6329 47.7837C34.9584 50.2539 35.8746 52.6093 37.3039 54.6501C38.7332 56.691 40.6334 58.3572 42.8435 59.5076C45.0536 60.658 47.5084 61.2586 50 61.2586C52.4916 61.2586 54.9464 60.658 57.1565 59.5076C59.3666 58.3572 61.2668 56.691 62.6961 54.6501C64.1254 52.6093 65.0416 50.2539 65.3671 47.7837C65.6927 45.3135 65.4179 42.8012 64.5661 40.4598C64.8064 40.6031 65.0466 40.7504 65.283 40.9015H65.2869ZM50 44.1875C49.9995 45.7296 49.3864 47.2083 48.2956 48.2984C47.2048 49.3884 45.7257 50.0005 44.1836 50C42.6415 49.9995 41.1628 49.3864 40.0728 48.2956C38.9827 47.2048 38.3706 45.7257 38.3711 44.1836C38.3716 42.6415 38.9847 41.1628 40.0755 40.0728C41.1663 38.9827 42.6454 38.3706 44.1875 38.3711C45.7296 38.3716 47.2083 38.9847 48.2984 40.0755C49.3884 41.1663 50.0005 42.6454 50 44.1875Z" fill="#03091E"/>
</g>
<defs>
<clipPath id="clip0_478_4">
<rect width="62" height="62" fill="white" transform="translate(20 19)"/>
</clipPath>
</defs>
</svg>
