<svg width="103" height="103" viewBox="0 0 103 103" fill="none" xmlns="http://www.w3.org/2000/svg">
<circle cx="51.5" cy="51.5" r="51.5" fill="#D97B29"/>
<g clip-path="url(#clip0_478_2)">
<path d="M86.4353 41.2425C66.7805 22.9992 36.2117 23.0058 16.5647 41.2425C15.8258 41.9283 15.8114 43.0894 16.5258 43.8008L20.3243 47.5826C21.0055 48.2617 22.1016 48.2762 22.8093 47.6249C38.9973 32.7426 64.0004 32.7393 80.1918 47.6249C80.8996 48.2762 81.9956 48.2606 82.6768 47.5826L86.4753 43.8008C87.1886 43.0894 87.1742 41.9283 86.4353 41.2425ZM51.5 63.1875C47.5784 63.1875 44.4 66.3771 44.4 70.3125C44.4 74.2479 47.5784 77.4375 51.5 77.4375C55.4216 77.4375 58.6 74.2479 58.6 70.3125C58.6 66.3771 55.4216 63.1875 51.5 63.1875ZM73.9837 53.8816C61.197 42.5339 41.7885 42.5462 29.0163 53.8816C28.2508 54.5607 28.2264 55.7396 28.9531 56.4588L32.7737 60.2429C33.4394 60.9019 34.511 60.9465 35.2199 60.3319C44.5331 52.2529 58.4879 52.2707 67.779 60.3319C68.4879 60.9465 69.5595 60.903 70.2251 60.2429L74.0458 56.4588C74.7736 55.7396 74.7481 54.5596 73.9837 53.8816Z" fill="#03091E"/>
</g>
<defs>
<clipPath id="clip0_478_2">
<rect width="71" height="57" fill="white" transform="translate(16 24)"/>
</clipPath>
</defs>
</svg>
