<svg width="103" height="103" viewBox="0 0 103 103" fill="none" xmlns="http://www.w3.org/2000/svg">
<circle cx="51.5" cy="51.5" r="51.5" fill="#D97B29"/>
<g clip-path="url(#clip0_478_3)">
<path d="M31.625 28C29.8679 28 28.1828 28.7112 26.9404 29.977C25.698 31.2429 25 32.9598 25 34.75V77.9264C25.0001 78.2603 25.0974 78.5867 25.2796 78.8642C25.4618 79.1418 25.7207 79.358 26.0236 79.4855C26.3264 79.6131 26.6596 79.6462 26.981 79.5808C27.3024 79.5153 27.5974 79.3542 27.8289 79.1177L37.2794 69.4889C37.9005 68.8559 38.7429 68.5002 39.6214 68.5H71.375C73.1321 68.5 74.8172 67.7888 76.0596 66.523C77.302 65.2571 78 63.5402 78 61.75V34.75C78 32.9598 77.302 31.2429 76.0596 29.977C74.8172 28.7112 73.1321 28 71.375 28H31.625Z" fill="#03091E"/>
</g>
<defs>
<clipPath id="clip0_478_3">
<rect width="53" height="54" fill="white" transform="translate(25 28)"/>
</clipPath>
</defs>
</svg>
