<svg width="835" height="105" viewBox="0 0 835 105" fill="none" xmlns="http://www.w3.org/2000/svg">
<circle cx="51.5" cy="53.5" r="51.5" fill="#D97B29"/>
<circle cx="400.5" cy="51.5" r="51.5" fill="#D97B29"/>
<circle cx="783.5" cy="51.5" r="51.5" fill="#D97B29"/>
<g clip-path="url(#clip0_96_5)">
<path d="M50 32.625C36.4801 32.625 24.7582 40.499 19 52C24.7582 63.501 36.4801 71.375 50 71.375C63.5199 71.375 75.2417 63.501 81 52C75.2417 40.499 63.5199 32.625 50 32.625ZM65.2869 42.9015C68.9294 45.2265 72.0177 48.3381 74.335 52C72.025 55.6615 68.9355 58.7682 65.2869 61.0985C60.7223 64.015 55.4187 65.5647 50.0019 65.5647C44.5852 65.5647 39.2815 64.015 34.717 61.0985C31.0701 58.7661 27.981 55.6598 25.6689 52C28.131 48.0984 31.476 44.8304 35.4339 42.4598C34.5821 44.8012 34.3073 47.3135 34.6329 49.7837C34.9584 52.2539 35.8746 54.6093 37.3039 56.6501C38.7332 58.691 40.6334 60.3572 42.8435 61.5076C45.0536 62.658 47.5084 63.2586 50 63.2586C52.4916 63.2586 54.9464 62.658 57.1565 61.5076C59.3666 60.3572 61.2668 58.691 62.6961 56.6501C64.1254 54.6093 65.0416 52.2539 65.3671 49.7837C65.6927 47.3135 65.4179 44.8012 64.5661 42.4598C64.8064 42.6031 65.0466 42.7504 65.283 42.9015H65.2869ZM50 46.1875C49.9995 47.7296 49.3864 49.2083 48.2956 50.2984C47.2048 51.3884 45.7257 52.0005 44.1836 52C42.6415 51.9995 41.1628 51.3864 40.0728 50.2956C38.9827 49.2048 38.3706 47.7257 38.3711 46.1836C38.3716 44.6415 38.9847 43.1628 40.0755 42.0728C41.1663 40.9827 42.6454 40.3706 44.1875 40.3711C45.7296 40.3716 47.2083 40.9847 48.2984 42.0755C49.3884 43.1663 50.0005 44.6454 50 46.1875Z" fill="#03091E"/>
</g>
<g clip-path="url(#clip1_96_5)">
<path d="M763.625 28C761.868 28 760.183 28.7112 758.94 29.977C757.698 31.2429 757 32.9598 757 34.75V77.9264C757 78.2603 757.097 78.5867 757.28 78.8642C757.462 79.1418 757.721 79.358 758.024 79.4855C758.326 79.6131 758.66 79.6462 758.981 79.5808C759.302 79.5153 759.597 79.3542 759.829 79.1177L769.279 69.4889C769.901 68.8559 770.743 68.5002 771.621 68.5H803.375C805.132 68.5 806.817 67.7888 808.06 66.523C809.302 65.2571 810 63.5402 810 61.75V34.75C810 32.9598 809.302 31.2429 808.06 29.977C806.817 28.7112 805.132 28 803.375 28H763.625Z" fill="#03091E"/>
</g>
<g clip-path="url(#clip2_96_5)">
<path d="M435.435 41.2425C415.781 22.9992 385.212 23.0058 365.565 41.2425C364.826 41.9283 364.811 43.0894 365.526 43.8008L369.324 47.5826C370.005 48.2617 371.102 48.2762 371.809 47.6249C387.997 32.7426 413 32.7393 429.192 47.6249C429.9 48.2762 430.996 48.2606 431.677 47.5826L435.475 43.8008C436.189 43.0894 436.174 41.9283 435.435 41.2425ZM400.5 63.1875C396.578 63.1875 393.4 66.3771 393.4 70.3125C393.4 74.2479 396.578 77.4375 400.5 77.4375C404.422 77.4375 407.6 74.2479 407.6 70.3125C407.6 66.3771 404.422 63.1875 400.5 63.1875ZM422.984 53.8816C410.197 42.5339 390.789 42.5462 378.016 53.8816C377.251 54.5607 377.226 55.7396 377.953 56.4588L381.774 60.2429C382.439 60.9019 383.511 60.9465 384.22 60.3319C393.533 52.2529 407.488 52.2707 416.779 60.3319C417.488 60.9465 418.56 60.903 419.225 60.2429L423.046 56.4588C423.774 55.7396 423.748 54.5596 422.984 53.8816Z" fill="#03091E"/>
</g>
<defs>
<clipPath id="clip0_96_5">
<rect width="62" height="62" fill="white" transform="translate(20 21)"/>
</clipPath>
<clipPath id="clip1_96_5">
<rect width="53" height="54" fill="white" transform="translate(757 28)"/>
</clipPath>
<clipPath id="clip2_96_5">
<rect width="71" height="57" fill="white" transform="translate(365 24)"/>
</clipPath>
</defs>
</svg>
